<?xml version="1.0" encoding="UTF-8"?> <!-- Generator: Adobe Illustrator 22.1.0, SVG Export Plug-In . SVG Version: 6.00 Build 0) --> <svg xmlns="http://www.w3.org/2000/svg" xmlns:xlink="http://www.w3.org/1999/xlink" id="Layer_2" x="0px" y="0px" viewBox="0 0 146 142" style="enable-background:new 0 0 146 142;" xml:space="preserve"> <style type="text/css"> .st0{fill:#FFFFFF;stroke:#E00000;stroke-width:2;stroke-miterlimit:10;} .st1{fill:#E00000;} </style> <polygon class="st0" points="73.9,7 63.4,43.6 41.2,35.8 46,57.9 6.4,68.1 46.4,79.3 40.2,102.8 61.8,97.2 73,135.3 83,97.2 105.8,102.8 100.5,79.3 138.9,68.1 99.2,58 107.2,35.9 83.5,43.6 "></polygon> <polygon class="st0" points="73.9,7 59.2,54.7 6.4,68.1 58.2,82.5 73,135.3 86.4,84.6 138.9,68.1 86.3,55.9 "></polygon> <polygon class="st0" points="73.9,7 59.2,54.7 6.4,68.1 58.2,82.5 73,135.3 86.4,84.6 138.9,68.1 86.3,55.9 "></polygon> <polygon class="st1" points="74.4,9 73,135.3 59.2,82.5 86.7,56.3 "></polygon> <polygon class="st1" points="135.3,68.3 73.4,69 9.4,68.2 60,54.3 86.6,83.9 "></polygon> </svg> 